# xmcd CD database file
#
# Track frame offsets:
#	150
#	27711
#	46463
#	65269
#	95143
#	105549
#	124189
#	138839
#	151004
#	166436
#	182131
#
# Disc length: 2891 seconds
#
# Revision: 0
# Processed by: cddbd v1.5.2PL0 Copyright (c) Steve Scherf et al.
# Submitted via: CDex 1.70beta2
#
DISCID=940b490b
DTITLE=Zanussi Five - Alborado
DYEAR=2006
DGENRE=Jazz
TTITLE0=Alborado
TTITLE1=Balatron
TTITLE2=Amorous Parade
TTITLE3=Interlocutor
TTITLE4=Maboroshi
TTITLE5=Ornitheology
TTITLE6=Solitude Amidst the Suns
TTITLE7=Zoanthropy part1
TTITLE8=Zoanthropy part2
TTITLE9=The Glimmung
TTITLE10=Asso di Picche
EXTD=YEAR: 2006
EXTT0=
EXTT1=
EXTT2=
EXTT3=
EXTT4=
EXTT5=
EXTT6=
EXTT7=
EXTT8=
EXTT9=
EXTT10=
PLAYORDER=
